# xmcd CD database file
#
# Track frame offsets:
#	150
#	22703
#	43501
#	62046
#	78265
#	96629
#	116949
#	135173
#	156112
#	181261
#	202867
#
# Disc length: 2934 seconds
#
# Revision: 0
# Processed by: cddbd v1.5.2PL0 Copyright (c) Steve Scherf et al.
# Submitted via: CDex 1.51
#
DISCID=840b740b
DTITLE=Donaldo Florez - Abran paso, que me voy...
DYEAR=1900
DGENRE=Salsa
TTITLE0=Vecina
TTITLE1=Me voy pa' Calimete
TTITLE2=Soneando Llegué
TTITLE3=Que cosas tiene la vida
TTITLE4=Guajiro natural
TTITLE5=Lucha, pero no me estrujes
TTITLE6=Guarapo
TTITLE7=No sirvió
TTITLE8=Testamento de un sonero
TTITLE9=Dicen que amor
TTITLE10=Lo mismo que a Usted
EXTD=
EXTT0=
EXTT1=
EXTT2=
EXTT3=
EXTT4=
EXTT5=
EXTT6=
EXTT7=
EXTT8=
EXTT9=
EXTT10=
PLAYORDER=
